<svg xmlns="http://www.w3.org/2000/svg" viewBox="222.7 -10 240 240">
  <rect x="222.7" y="-10" width="240" height="240" rx="38" fill="#F7F3ED"/>
  <defs>
    <filter id="sh-t"  x="-20%" y="-20%" width="140%" height="140%">
      <feDropShadow dx="2" dy="3" stdDeviation="3" flood-color="#0a2420" flood-opacity="0.45"/>
    </filter>
    <filter id="sh-a1" x="-20%" y="-20%" width="140%" height="140%">
      <feDropShadow dx="2" dy="3" stdDeviation="4" flood-color="#0a2420" flood-opacity="0.28"/>
    </filter>
    <filter id="sh-a2" x="-20%" y="-20%" width="140%" height="140%">
      <feDropShadow dx="0" dy="-2" stdDeviation="4" flood-color="#6b4a08" flood-opacity="0.5"/>
    </filter>
  </defs>
  <!-- A1 teal back -->
  <path d="M350.475 87.5H392.475L393.525 91.25H348.52500000000003ZM428.325 128.0Q425.475 128.0 419.175 127.7Q412.875 127.4 410.025 127.4Q406.275 127.4 401.175 127.7Q396.075 128.0 393.225 128.0Q392.625 128.0 392.625 127.1Q392.625 126.2 393.225 126.2Q397.725 126.2 399.675 125.225Q401.625 124.25 401.625 122.0Q401.625 119.75 399.075 114.35L367.725 50.60000000000001L373.875 40.55L344.175 107.45Q342.225 111.95 342.225 115.55Q342.225 120.8 345.975 123.5Q349.725 126.2 356.475 126.2Q357.225 126.2 357.225 127.1Q357.225 128.0 356.475 128.0Q353.77500000000003 128.0 348.675 127.7Q342.975 127.4 338.77500000000003 127.4Q334.725 127.4 329.325 127.7Q324.52500000000003 128.0 321.375 128.0Q320.625 128.0 320.625 127.1Q320.625 126.2 321.375 126.2Q325.575 126.2 328.425 124.55000000000001Q331.27500000000003 122.9 333.975 118.625Q336.675 114.35 340.425 105.95L372.675 33.35000000000001Q372.975 32.900000000000006 374.02500000000003 32.900000000000006Q375.075 32.900000000000006 375.225 33.35000000000001L411.975 107.45Q417.075 118.25 420.6 122.225Q424.125 126.2 428.325 126.2Q428.925 126.2 428.925 127.1Q428.925 128.0 428.325 128.0Z" fill="#1E4D45" filter="url(#sh-a1)"/>
  <!-- A2 gold -->
  <path d="M315.475 155.5H357.475L358.525 159.25H313.52500000000003ZM393.325 196.0Q390.475 196.0 384.175 195.7Q377.875 195.4 375.025 195.4Q371.275 195.4 366.175 195.7Q361.075 196.0 358.225 196.0Q357.625 196.0 357.625 195.1Q357.625 194.2 358.225 194.2Q362.725 194.2 364.675 193.225Q366.625 192.25 366.625 190.0Q366.625 187.75 364.075 182.35L332.725 118.60000000000001L338.875 108.55L309.175 175.45Q307.225 179.95 307.225 183.55Q307.225 188.8 310.975 191.5Q314.725 194.2 321.475 194.2Q322.225 194.2 322.225 195.1Q322.225 196.0 321.475 196.0Q318.77500000000003 196.0 313.675 195.7Q307.975 195.4 303.77500000000003 195.4Q299.725 195.4 294.325 195.7Q289.52500000000003 196.0 286.375 196.0Q285.625 196.0 285.625 195.1Q285.625 194.2 286.375 194.2Q290.575 194.2 293.425 192.55Q296.27500000000003 190.9 298.975 186.625Q301.675 182.35 305.425 173.95L337.675 101.35000000000001Q337.975 100.9 339.02500000000003 100.9Q340.075 100.9 340.225 101.35000000000001L376.975 175.45Q382.075 186.25 385.6 190.225Q389.125 194.2 393.325 194.2Q393.925 194.2 393.925 195.1Q393.925 196.0 393.325 196.0Z" fill="#C49A3C" filter="url(#sh-a2)"/>
  <!-- T teal front -->
  <path d="M264.5 59.900000000000006Q264.5 60.35000000000001 263.675 60.275000000000006Q262.85 60.2 262.85 59.900000000000006Q263.45 54.05 264.2 44.825Q264.95 35.60000000000001 264.95 30.950000000000003Q264.95 30.200000000000003 265.775 30.200000000000003Q266.6 30.200000000000003 266.6 30.950000000000003Q266.6 34.25 275.0 34.25Q287.9 34.7 305.15 34.7Q314.0 34.7 323.9 34.400000000000006L334.1 34.25Q339.8 34.25 342.425 33.5Q345.05 32.75 345.8 30.5Q345.95 29.900000000000006 346.7 29.900000000000006Q347.45 29.900000000000006 347.45 30.5Q347.0 35.150000000000006 346.55 44.6Q346.1 54.05 346.1 59.900000000000006Q346.1 60.2 345.275 60.2Q344.45 60.2 344.3 59.900000000000006Q342.8 48.35000000000001 337.25 42.87500000000001Q331.7 37.400000000000006 322.25 37.400000000000006Q318.05 37.400000000000006 316.025 38.150000000000006Q314.0 38.900000000000006 313.25 40.775000000000006Q312.5 42.650000000000006 312.5 46.7V115.85Q312.5 120.35 313.475 122.525Q314.45 124.7 317.15 125.45Q319.85 126.2 325.7 126.2Q326.15 126.2 326.15 127.1Q326.15 128.0 325.7 128.0Q320.45 128.0 317.45 127.85L305.15 127.7L293.45 127.85Q290.3 128.0 284.75 128.0Q284.45 128.0 284.45 127.1Q284.45 126.2 284.75 126.2Q290.6 126.2 293.375 125.45Q296.15 124.7 297.125 122.525Q298.1 120.35 298.1 115.85V46.400000000000006Q298.1 42.5 297.35 40.625Q296.6 38.75 294.65 38.075Q292.7 37.400000000000006 288.5 37.400000000000006Q279.35 37.400000000000006 273.5 43.025000000000006Q267.65 48.650000000000006 264.5 59.900000000000006Z"  fill="#1E4D45" filter="url(#sh-t)"/>
</svg>